<?xml version="1.0" encoding="UTF-8"?><svg id="SOBRE_NARANJA" xmlns="http://www.w3.org/2000/svg" viewBox="0 0 2436 1125"><defs><style>.cls-1{fill:#fff;}</style></defs><g><path class="cls-1" d="M226.83,565.2c0-1.39,.38-2.5,1.14-3.33,.76-.83,1.91-1.25,3.43-1.25h16.95c1.18,0,2.29,.41,3.33,1.25,1.04,.83,1.56,1.94,1.56,3.33v47.74c0,.83-.21,1.63-.62,2.39s-1.18,1.49-2.29,2.18c-.07,0-.1,.02-.1,.05,0,.04-.04,.05-.11,.05-3.26,2.29-6.76,4.34-10.5,6.14-3.75,1.8-7.66,3.31-11.75,4.52-4.09,1.21-8.29,2.15-12.59,2.81-4.3,.66-8.6,.99-12.9,.99-7.28,0-14.32-.94-21.11-2.81-6.8-1.87-13.12-4.54-18.98-8.01-5.86-3.47-11.2-7.61-16.02-12.43-4.82-4.82-8.96-10.16-12.43-16.02-3.47-5.86-6.14-12.17-8.01-18.93-1.87-6.76-2.81-13.81-2.81-21.17s.94-14.3,2.81-21.06c1.87-6.76,4.54-13.09,8.01-18.98s7.61-11.27,12.43-16.12c4.82-4.85,10.17-9.01,16.07-12.48,5.89-3.47,12.22-6.15,18.98-8.06,6.76-1.91,13.81-2.86,21.17-2.86,4.92,0,9.83,.44,14.72,1.3,4.89,.87,9.62,2.17,14.2,3.9,1.73,.69,3.8,1.56,6.19,2.6,2.39,1.04,4.66,2.18,6.81,3.43,2.15,1.25,3.97,2.53,5.46,3.85,1.49,1.32,2.24,2.6,2.24,3.85,0,.56-.31,1.44-.94,2.65-.62,1.22-1.4,2.59-2.34,4.11s-1.99,3.1-3.17,4.73-2.32,3.1-3.43,4.42c-1.11,1.31-2.12,2.41-3.02,3.28-.9,.87-1.6,1.3-2.08,1.3-.42,0-.92-.09-1.51-.26-.59-.17-1.2-.5-1.82-.99-4.37-3.05-9.29-5.48-14.77-7.28-5.48-1.8-11.06-2.71-16.75-2.71-7.42,0-14.21,1.39-20.39,4.16s-11.48,6.52-15.91,11.23c-4.44,4.72-7.9,10.18-10.4,16.38-2.5,6.21-3.74,12.74-3.74,19.61s1.33,13.71,4,19.92c2.67,6.21,6.28,11.62,10.82,16.23,4.54,4.61,9.86,8.25,15.97,10.92,6.1,2.67,12.58,4,19.45,4,2.57,0,5.1-.19,7.59-.57,2.5-.38,4.84-.86,7.02-1.46,2.18-.59,4.14-1.25,5.88-1.98,1.73-.73,3.15-1.44,4.27-2.13v-32.45Z"/><path class="cls-1" d="M282.99,503.83c0-2.01,.68-3.53,2.04-4.58,1.36-1.04,2.84-1.56,4.44-1.56h13.26c1.74,0,3.06,.52,3.97,1.56,.9,1.04,1.6,2.32,2.09,3.85s.83,3.17,1.04,4.94c.21,1.77,.45,3.38,.73,4.83,1.53-2.15,3.25-4.25,5.16-6.29,1.91-2.04,4.07-3.86,6.5-5.46,2.43-1.6,5.16-2.88,8.22-3.85,3.05-.97,6.52-1.46,10.4-1.46,3.47,0,6.59,.23,9.36,.68,2.77,.45,5.42,1.15,7.96,2.08,2.53,.94,5.01,2.15,7.44,3.64s5.03,3.24,7.8,5.25c1.18,.76,2.2,1.63,3.07,2.6,.87,.97,1.3,2.12,1.3,3.43-.07,.56-.17,1.15-.31,1.77-.14,.62-.42,1.25-.83,1.87l-8.53,13.52c-.56,.69-1.2,1.19-1.92,1.51-.73,.31-1.37,.47-1.92,.47-1.11,0-2.18-.28-3.22-.83-2.29-1.25-4.37-2.43-6.24-3.53s-3.71-2.06-5.51-2.86c-1.8-.79-3.66-1.42-5.56-1.87-1.91-.45-4.04-.68-6.4-.68-6.17,0-11.39,1.98-15.65,5.93s-7.12,9.4-8.58,16.33v78.42c0,4.16-2.16,6.24-6.47,6.24h-17.12c-4.31,0-6.47-2.08-6.47-6.24v-119.72Z"/><path class="cls-1" d="M511.61,625.73c0,.76-.26,1.35-.78,1.77-.52,.42-1.16,.71-1.92,.89-.76,.17-1.6,.28-2.5,.31-.9,.04-1.7,.05-2.39,.05h-10.51c-2.01,0-3.5-.64-4.47-1.92-.97-1.28-1.63-2.76-1.98-4.42l-1.15-9.47c-1.53,2.29-3.43,4.49-5.72,6.6-2.29,2.12-4.99,3.99-8.11,5.62-3.12,1.63-6.71,2.93-10.76,3.9-4.06,.97-8.65,1.46-13.78,1.46-8.25,0-15.53-1.47-21.84-4.42-6.31-2.94-11.6-6.97-15.86-12.06s-7.51-11.11-9.73-18.05c-2.22-6.93-3.33-14.39-3.33-22.36v-69.38c0-2.5,.59-4.38,1.77-5.67,1.18-1.28,2.88-1.92,5.1-1.92h15.81c2.77,0,4.63,.52,5.56,1.56,.94,1.04,1.4,2.88,1.4,5.51v69.38c0,3.68,.57,7.27,1.72,10.76,1.15,3.51,2.86,6.64,5.15,9.41s5.15,4.99,8.58,6.66c3.43,1.67,7.44,2.5,12.01,2.5,3.19,0,6.52-.55,9.99-1.67,3.47-1.11,6.62-2.81,9.46-5.09,2.84-2.29,5.2-5.15,7.07-8.58,1.87-3.43,2.81-7.44,2.81-12.01v-67.5c0-1.25,.07-2.51,.21-3.8,.14-1.28,.43-2.46,.88-3.53,.45-1.07,1.07-1.94,1.87-2.6,.8-.66,1.89-.99,3.28-.99h17.16c2.29,0,3.97,.56,5.04,1.67s1.61,2.67,1.61,4.68v119.61c0,1.39-.56,2.43-1.66,3.12Z"/><path class="cls-1" d="M546.35,498.32c.9-.42,1.82-.68,2.76-.78,.94-.11,1.85-.16,2.76-.16h10.5c2.08,0,3.55,.59,4.42,1.77,.87,1.18,1.47,2.67,1.82,4.47l2.18,12.69c2.43-2.77,5.01-5.41,7.75-7.9,2.74-2.5,5.77-4.71,9.1-6.66,3.33-1.94,7-3.48,11.03-4.63,4.02-1.15,8.53-1.72,13.52-1.72,6.31,0,12.33,.82,18.04,2.45,5.72,1.63,11.06,3.92,16.02,6.87s9.45,6.48,13.47,10.61c4.02,4.13,7.47,8.72,10.35,13.78,2.87,5.06,5.09,10.5,6.66,16.33,1.56,5.82,2.34,11.89,2.34,18.2s-.78,12.38-2.34,18.2c-1.56,5.82-3.78,11.27-6.66,16.33-2.88,5.06-6.33,9.67-10.35,13.84-4.02,4.16-8.51,7.71-13.47,10.66s-10.32,5.24-16.07,6.87c-5.75,1.63-11.75,2.44-17.99,2.44-4.51,0-8.65-.48-12.43-1.46-3.78-.97-7.28-2.3-10.5-4s-6.21-3.68-8.95-5.93c-2.74-2.25-5.32-4.67-7.75-7.23v50.65c0,1.66-.52,3.08-1.56,4.26-1.04,1.18-2.6,1.77-4.68,1.77h-17.27c-1.46,0-2.9-.54-4.32-1.61-1.42-1.07-2.13-2.54-2.13-4.42v-160.49c0-1.46,.33-2.6,.99-3.44,.66-.83,1.58-1.42,2.76-1.77Zm103.08,65.32c0-5.48-.99-10.69-2.97-15.65-1.98-4.96-4.68-9.29-8.11-13-3.43-3.71-7.51-6.66-12.22-8.84-4.72-2.19-9.81-3.28-15.29-3.28s-10.63,1.07-15.45,3.22c-4.82,2.15-9.05,5.05-12.69,8.69-3.64,3.64-6.55,7.89-8.74,12.74-2.18,4.86-3.31,9.99-3.38,15.39v.73c0,5.55,1.06,10.82,3.17,15.81,2.11,4.99,4.99,9.36,8.63,13.1,3.64,3.74,7.9,6.73,12.79,8.94,4.89,2.22,10.1,3.33,15.66,3.33s10.57-1.11,15.29-3.33c4.71-2.22,8.79-5.2,12.22-8.94,3.43-3.75,6.14-8.11,8.11-13.1,1.98-4.99,2.97-10.26,2.97-15.81Z"/><path class="cls-1" d="M698.1,563.95c0-6.31,.81-12.4,2.44-18.25,1.63-5.86,3.93-11.32,6.91-16.38,2.98-5.06,6.55-9.66,10.7-13.78,4.16-4.12,8.76-7.66,13.82-10.61s10.48-5.23,16.27-6.87c5.78-1.63,11.83-2.44,18.14-2.44s12.26,.81,18.08,2.44c5.82,1.63,11.24,3.92,16.26,6.87s9.61,6.49,13.77,10.61c4.16,4.13,7.72,8.72,10.7,13.78,2.98,5.06,5.29,10.52,6.91,16.38,1.63,5.86,2.45,11.95,2.45,18.25s-.82,12.38-2.45,18.2c-1.63,5.82-3.93,11.25-6.91,16.28s-6.55,9.62-10.7,13.78c-4.16,4.16-8.75,7.72-13.77,10.66-5.02,2.95-10.45,5.24-16.26,6.87-5.82,1.63-11.85,2.45-18.08,2.45s-12.35-.82-18.14-2.45c-5.79-1.63-11.21-3.92-16.27-6.87-5.06-2.94-9.67-6.5-13.82-10.66-4.16-4.16-7.73-8.75-10.7-13.78-2.98-5.03-5.29-10.45-6.91-16.28-1.63-5.82-2.44-11.89-2.44-18.2Zm29.33,0c0,5.55,.97,10.8,2.91,15.76,1.94,4.96,4.65,9.27,8.11,12.95,3.46,3.68,7.58,6.59,12.33,8.74,4.75,2.15,9.93,3.22,15.55,3.22s10.56-1.07,15.24-3.22c4.68-2.15,8.72-5.06,12.12-8.74s6.05-7.99,7.96-12.95,2.86-10.21,2.86-15.76-.96-10.72-2.86-15.71c-1.91-4.99-4.56-9.38-7.96-13.16-3.4-3.78-7.44-6.79-12.12-9.05-4.68-2.25-9.76-3.38-15.24-3.38s-10.8,1.13-15.55,3.38c-4.75,2.26-8.86,5.27-12.33,9.05-3.47,3.78-6.17,8.17-8.11,13.16-1.94,4.99-2.91,10.23-2.91,15.71Z"/></g><g><path class="cls-1" d="M1484.76,480.22c0-3.26,1.52-4.89,4.58-4.89h63.66c7,0,13.56,1.32,19.66,3.95,6.1,2.64,11.42,6.21,15.96,10.72,4.54,4.51,8.11,9.81,10.72,15.91,2.6,6.11,3.9,12.59,3.9,19.45,0,4.79-.66,9.36-1.98,13.73-1.32,4.37-3.16,8.43-5.51,12.17s-5.16,7.12-8.43,10.14c-3.26,3.01-6.86,5.56-10.81,7.65l27.04,53.36c.14,.69,.38,1.39,.73,2.08,.34,.69,.52,1.42,.52,2.18,0,2.08-1.21,3.12-3.64,3.12h-24.13c-2.5,0-4.16-1.28-4.99-3.85l-25.17-49.93c-1.11,0-2.3,.02-3.59,.05-1.29,.04-3.05,.05-5.3,.05h-22.94v49.2c0,2.98-1.6,4.47-4.78,4.47h-20.91c-1.39,0-2.5-.37-3.33-1.09-.83-.73-1.25-1.85-1.25-3.38v-145.1Zm87.68,45.3c0-2.98-.56-5.87-1.67-8.67-1.11-2.8-2.67-5.31-4.68-7.53-2.01-2.21-4.41-4.01-7.18-5.4-2.77-1.38-5.79-2.18-9.05-2.39-2.43-.07-4.8-.12-7.12-.16-2.32-.03-4.73-.05-7.23-.05h-20.49v48.26h31.36c1.22,0,2.52-.07,3.9-.21,3.26-.21,6.26-.97,9-2.28,2.74-1.31,5.08-3.06,7.02-5.24,1.94-2.18,3.45-4.67,4.52-7.47s1.61-5.76,1.61-8.87Z"/><path class="cls-1" d="M1627.16,457.98c0-4.18,2.04-6.26,6.14-6.26h17.47c1.94,0,3.5,.52,4.68,1.57,1.18,1.05,1.77,2.61,1.77,4.7v15.55c0,1.6-.56,3.11-1.67,4.54-1.11,1.43-2.67,2.14-4.68,2.14h-17.47c-4.16,0-6.24-2.23-6.24-6.68v-15.55Zm0,46.06c0-1.8,.52-3.31,1.56-4.52,1.04-1.22,2.56-1.82,4.58-1.82h17.27c.76,0,1.54,.16,2.34,.47,.8,.31,1.51,.76,2.13,1.35,.62,.59,1.14,1.26,1.56,2.03s.62,1.6,.62,2.5v119.51c0,4.16-2.18,6.24-6.55,6.24h-17.27c-4.16,0-6.24-2.08-6.24-6.24v-119.51Z"/><path class="cls-1" d="M1823.53,623.65c0,1.24-.26,2.27-.78,3.07-.52,.8-1.2,1.42-2.03,1.87s-1.79,.76-2.86,.94c-1.08,.17-2.21,.26-3.38,.26h-13c-2.22,0-3.76-.59-4.63-1.77-.87-1.18-1.51-2.67-1.92-4.47l-.62-8.84c-2.43,2.43-5.11,4.7-8.06,6.81-2.95,2.12-6.12,3.95-9.52,5.51-3.4,1.56-7,2.77-10.81,3.64-3.82,.87-7.73,1.3-11.75,1.3-6.24,0-12.26-.82-18.05-2.44-5.79-1.63-11.22-3.92-16.28-6.87-5.06-2.95-9.66-6.5-13.78-10.66-4.13-4.16-7.66-8.77-10.61-13.84-2.95-5.06-5.23-10.5-6.86-16.33-1.63-5.82-2.45-11.89-2.45-18.2s.81-12.38,2.45-18.2c1.63-5.82,3.92-11.27,6.86-16.33,2.95-5.06,6.48-9.66,10.61-13.78,4.12-4.13,8.72-7.66,13.78-10.61,5.06-2.95,10.49-5.24,16.28-6.87,5.79-1.63,11.8-2.45,18.05-2.45,4.44,0,8.67,.47,12.69,1.4,4.02,.94,7.78,2.26,11.28,3.96s6.74,3.74,9.73,6.14,5.69,5.01,8.11,7.85l1.46-11.13c.35-1.25,.68-2.27,.99-3.07,.31-.79,.69-1.44,1.14-1.92,.45-.48,1.02-.81,1.72-.99s1.56-.26,2.6-.26h10.4c1.11,0,2.22,.1,3.33,.31,1.11,.21,2.12,.54,3.02,.99,.9,.45,1.61,1.08,2.13,1.87,.52,.8,.78,1.79,.78,2.97v120.13Zm-108.17-60.02c0,5.55,.97,10.8,2.91,15.76,1.94,4.96,4.65,9.31,8.11,13.06,3.46,3.74,7.54,6.71,12.22,8.89,4.68,2.19,9.79,3.28,15.34,3.28s10.87-1.09,15.76-3.28c4.89-2.18,9.13-5.15,12.74-8.89,3.6-3.75,6.45-8.1,8.53-13.06,2.08-4.96,3.12-10.21,3.12-15.76s-1.04-10.69-3.12-15.65c-2.08-4.96-4.92-9.31-8.53-13.05s-7.85-6.73-12.74-8.95c-4.89-2.22-10.14-3.33-15.76-3.33s-10.66,1.11-15.34,3.33c-4.68,2.22-8.76,5.2-12.22,8.95-3.47,3.75-6.17,8.1-8.11,13.05-1.94,4.96-2.91,10.18-2.91,15.65Z"/><path class="cls-1" d="M1864.82,592.55c1.46,2.29,3.29,4.26,5.51,5.93,2.22,1.66,4.49,3.03,6.81,4.11s4.54,1.86,6.66,2.34c2.12,.48,3.8,.73,5.05,.73,1.94,0,4.23-.21,6.87-.62,2.63-.42,5.11-1.16,7.44-2.24,2.32-1.07,4.3-2.53,5.93-4.37s2.45-4.18,2.45-7.02-.64-5.03-1.92-6.76-3.02-3.17-5.2-4.32-4.68-2.1-7.49-2.86c-2.81-.76-5.77-1.6-8.89-2.5-7.28-1.94-13.49-4.28-18.62-7.02s-9.34-5.88-12.64-9.41c-3.29-3.53-5.71-7.42-7.23-11.65-1.53-4.23-2.29-8.84-2.29-13.83,0-5.61,1.11-10.75,3.33-15.39,2.22-4.65,5.34-8.64,9.36-11.96,4.02-3.33,8.86-5.91,14.51-7.75,5.65-1.84,11.91-2.76,18.77-2.76,4.85,0,9.19,.43,13,1.3,3.81,.87,7.35,2.17,10.61,3.9s6.33,3.92,9.2,6.55c2.88,2.64,5.81,5.72,8.79,9.26,1.04,1.25,1.56,2.46,1.56,3.64,0,1.25-.69,2.43-2.08,3.53-1.04,.83-2.27,1.87-3.69,3.12s-2.83,2.46-4.21,3.64c-1.39,1.18-2.7,2.18-3.95,3.01-1.25,.83-2.29,1.25-3.12,1.25-1.53,0-3.02-.9-4.47-2.7-1.53-1.8-3.05-3.38-4.58-4.73s-3.12-2.46-4.78-3.33c-1.67-.87-3.47-1.53-5.41-1.98-1.94-.45-4.06-.68-6.34-.68-1.87,0-3.83,.28-5.88,.83-2.05,.55-3.92,1.39-5.62,2.5s-3.12,2.45-4.27,4c-1.14,1.56-1.71,3.31-1.71,5.25,0,2.22,.71,4.11,2.13,5.67,1.42,1.56,3.22,2.91,5.4,4.06,2.18,1.15,4.55,2.1,7.11,2.86,2.56,.76,4.95,1.46,7.17,2.08,6.37,1.8,12.22,3.88,17.55,6.24,5.33,2.36,9.92,5.22,13.76,8.58,3.84,3.36,6.83,7.32,8.98,11.86,2.14,4.54,3.22,9.86,3.22,15.96,0,6.45-1.28,12.22-3.83,17.32-2.56,5.1-6.1,9.41-10.63,12.95-4.52,3.53-9.89,6.24-16.08,8.11-6.19,1.87-12.93,2.81-20.22,2.81-4.37,0-8.81-.47-13.31-1.41-4.51-.93-8.82-2.39-12.95-4.37s-7.94-4.51-11.44-7.59c-3.5-3.08-6.43-6.74-8.79-10.97-1.04-1.73-1.56-3.29-1.56-4.68,0-.9,.23-1.68,.68-2.34,.45-.66,1.06-1.3,1.82-1.92l11.65-8.94c1.04-.62,1.98-.94,2.81-.94,.97,0,1.84,.33,2.6,.99,.76,.66,1.6,1.54,2.5,2.65Z"/><path class="cls-1" d="M2072.94,615.23c-6.1,5.2-12.77,9.29-20.02,12.27-7.25,2.98-15.2,4.47-23.87,4.47-9.36,0-18.24-1.77-26.63-5.3-8.39-3.53-15.74-8.39-22.05-14.56s-11.32-13.4-15.03-21.69c-3.72-8.28-5.57-17.21-5.57-26.78,0-6.17,.77-12.13,2.29-17.89,1.53-5.75,3.69-11.15,6.5-16.17,2.81-5.03,6.23-9.64,10.25-13.83s8.51-7.79,13.47-10.77,10.33-5.29,16.13-6.92c5.78-1.63,11.91-2.44,18.36-2.44,5.27,0,10.47,.64,15.6,1.92,5.13,1.28,10,3.1,14.61,5.46s8.93,5.22,12.95,8.58c4.02,3.36,7.56,7.16,10.61,11.39,4.17,5.82,7.21,12.1,9.15,18.83s2.92,14.18,2.92,22.36c0,2.01-.09,3.69-.27,5.05-.17,1.35-.61,2.45-1.3,3.28s-1.73,1.44-3.12,1.82-3.33,.57-5.82,.57h-92.26c.89,4.99,2.62,9.41,5.15,13.26,2.53,3.85,5.53,7.11,8.99,9.78,3.47,2.67,7.25,4.68,11.34,6.03s8.19,2.03,12.28,2.03c3.12,0,6.12-.31,9-.93,2.87-.62,5.56-1.46,8.06-2.5s4.8-2.23,6.91-3.59c2.11-1.36,3.97-2.76,5.56-4.21,0-.07,.04-.1,.1-.1,.83-.76,1.63-1.37,2.39-1.82s1.56-.68,2.39-.68c.63,0,1.34,.21,2.13,.62s1.57,1.11,2.34,2.08c1.87,2.29,3.46,4.2,4.78,5.72s2.39,2.81,3.23,3.85c.83,1.04,1.43,1.94,1.82,2.7,.38,.76,.58,1.53,.58,2.29,0,1.94-1.32,3.88-3.96,5.82Zm-46.18-93.82c-4.09,0-8.08,.75-11.96,2.24-3.89,1.49-7.44,3.52-10.66,6.08-3.23,2.57-6.04,5.58-8.43,9.05s-4.14,7.21-5.25,11.23h73.64c-1.12-4.23-2.79-8.09-5.05-11.6-2.25-3.5-4.98-6.52-8.16-9.05-3.19-2.53-6.83-4.49-10.93-5.88-4.09-1.39-8.5-2.08-13.21-2.08Z"/><path class="cls-1" d="M2120.12,498.99c1.77-.87,3.97-1.3,6.6-1.3h10.5c2.01,0,3.5,.66,4.47,1.98s1.63,2.78,1.98,4.39l1.15,10.02c1.59-2.37,3.43-4.65,5.51-6.84,2.08-2.19,4.56-4.12,7.44-5.8,2.87-1.67,6.24-3.01,10.09-4.02s8.34-1.51,13.47-1.51c4.85,0,9.26,.47,13.21,1.41,3.95,.94,7.52,2.33,10.72,4.17,3.19,1.85,6.06,4.11,8.63,6.79,2.56,2.68,4.89,5.76,6.97,9.24,1.66-3.27,3.92-6.26,6.76-8.98s6.12-5.03,9.83-6.94,7.78-3.39,12.22-4.44c4.44-1.05,9.05-1.57,13.83-1.57,8.18,0,15.38,1.49,21.58,4.47,6.21,2.98,11.39,7.07,15.55,12.27,4.16,5.2,7.3,11.27,9.41,18.2,2.11,6.94,3.17,14.35,3.17,22.26v69.37c0,2.5-.59,4.39-1.77,5.67-1.18,1.29-2.88,1.92-5.1,1.92h-15.81c-2.77,0-4.63-.52-5.57-1.56-.93-1.04-1.4-2.87-1.4-5.51v-69.83c0-3.67-.52-7.24-1.56-10.7-1.04-3.46-2.65-6.53-4.84-9.19-2.18-2.67-4.92-4.81-8.21-6.44-3.29-1.63-7.23-2.45-11.81-2.45-3.81,0-7.35,.68-10.61,2.03-3.26,1.35-6.07,3.29-8.43,5.82-2.36,2.53-4.21,5.57-5.56,9.14s-2.03,7.53-2.03,11.9v69.31c0,4.99-2.25,7.48-6.76,7.48h-15.91c-2.77,0-4.61-.52-5.51-1.56-.9-1.04-1.35-2.87-1.35-5.51v-69.72c0-3.6-.5-7.12-1.51-10.55-1.01-3.43-2.57-6.49-4.68-9.2-2.12-2.7-4.84-4.88-8.17-6.55s-7.28-2.49-11.86-2.49c-3.19,0-6.38,.61-9.57,1.82-3.19,1.21-6.08,2.96-8.68,5.25s-4.74,5.09-6.4,8.41c-1.67,3.33-2.53,7.1-2.6,11.33v72.63c0,1.8-.59,3.27-1.77,4.42s-2.67,1.71-4.47,1.71h-17.16c-2.29,0-3.97-.54-5.05-1.61s-1.61-2.62-1.61-4.63v-119.72c0-2.36,.88-3.97,2.65-4.83Z"/></g><path class="cls-1" d="M890.5,585.66l189.11-185.33s146.25,22.69,176.5,176.5l-42.87,39.08s-5.04-85.73-112.21-147.51l-166.42,165.16-44.13-47.91Z"/><path class="cls-1" d="M1426.31,540.27l-189.11,185.33s-146.25-22.69-176.5-176.5l42.87-39.08s5.04,85.73,112.21,147.51l166.42-165.16,44.13,47.91Z"/></svg>